# xmcd CD database file
#
# Track frame offsets:
#	150
#	18051
#	39536
#	66272
#	93258
#	116508
#	133321
#	145462
#	154182
#
# Disc length: 2387 seconds
#
# Revision: 0
# Processed by: cddbd v1.5.2PL0 Copyright (c) Steve Scherf et al.
# Submitted via: CDex 1.60beta1-cs1
#
DISCID=79095109
DTITLE=Grovesnor - Metrosexual
DYEAR=2005
DGENRE=Electronica
TTITLE0=House Of Many Windows
TTITLE1=I Wouldn't Mind 'Er
TTITLE2=Fessin'
TTITLE3=It's Latin The Evening
TTITLE4=Laptop2
TTITLE5=Plug In Grovesnor
TTITLE6=Only 4 1 Nite
TTITLE7=Lickstick
TTITLE8=Metrosexual
EXTD=YEAR: 2005
EXTT0=
EXTT1=
EXTT2=
EXTT3=
EXTT4=
EXTT5=
EXTT6=
EXTT7=
EXTT8=
PLAYORDER=
